<?xml version="1.0" encoding="utf-8"?>
<!-- Generator: Adobe Illustrator 17.1.0, SVG Export Plug-In . SVG Version: 6.00 Build 0)  -->
<!DOCTYPE svg PUBLIC "-//W3C//DTD SVG 1.1//EN" "http://www.w3.org/Graphics/SVG/1.1/DTD/svg11.dtd">
<svg version="1.1" id="Layer_1" xmlns="http://www.w3.org/2000/svg" xmlns:xlink="http://www.w3.org/1999/xlink" x="0px" y="0px"
	 viewBox="0 363.5 595.3 114.9" enable-background="new 0 363.5 595.3 114.9" xml:space="preserve">
<path fill="#FFFFFF" d="M70.7,445c-24.3,0-36.1,18.4-37.5,32.8h79v-49.3C104.6,438.2,91.7,445,70.7,445z"/>
<path fill="#E30613" d="M70.7,434.9c18,0,41.6-4.3,41.6-42.1v-27.2H0v112.2h23.2c0.6-9.5,4.9-19.6,11.4-27.2
	C41,443.5,52.3,434.9,70.7,434.9z"/>
<g>
	<g>
		<path fill="#E30613" d="M146.3,365.6h25.2c13.7,0,23.1,6.4,23.1,20.9c0,14.9-8,21.5-22.4,21.5h-9.3V429h-16.5V365.6z M162.8,394.7
			h2.8c5.9,0,11.9,0,11.9-7.7c0-7.9-5.5-8-11.9-8h-2.8V394.7z"/>
		<path fill="#E30613" d="M222.6,379.6v10.6h18.6v14h-18.6V415h19.6v14h-36.1v-63.4h36.1v14H222.6z"/>
		<path fill="#E30613" d="M309.3,429h-20.5l-15.6-24.3H273V429h-16.5v-63.4h24.7c12.5,0,22,5.9,22,19.5c0,8.8-4.9,16.3-13.9,17.9
			L309.3,429z M273,394h1.6c5.4,0,11.4-1.1,11.4-7.9c0-6.9-6-7.9-11.4-7.9H273V394z"/>
		<path fill="#E30613" d="M352.8,381.9c-3.1-2.5-6.9-4.2-10.9-4.2c-3.1,0-7.1,1.8-7.1,5.3c0,3.7,4.4,5.1,7.3,6l4.2,1.3
			c8.8,2.6,15.7,7.1,15.7,17.4c0,6.4-1.5,12.8-6.6,17c-5,4.2-11.6,5.9-18,5.9c-7.9,0-15.8-2.6-22.3-7.2l7.1-13.3
			c4.1,3.6,9,6.6,14.6,6.6c3.9,0,7.9-1.9,7.9-6.4c0-4.7-6.5-6.2-10.1-7.2c-10.4-3-17.1-5.6-17.1-17.9c0-12.9,9.2-21.3,21.9-21.3
			c6.4,0,14.2,2,19.8,5.2L352.8,381.9z"/>
		<path fill="#E30613" d="M440.9,396.1c0,20.5-14.7,34.9-35,34.9s-35-14.5-35-34.9c0-19.2,16.8-32.6,35-32.6
			S440.9,376.9,440.9,396.1z M387.9,396.2c0,10.9,8,18.9,17.9,18.9s17.9-7.9,17.9-18.9c0-8.8-8-16.7-17.9-16.7
			S387.9,387.4,387.9,396.2z"/>
		<path fill="#E30613" d="M452.7,365.6h16.5l30.2,38.7h0.2v-38.7h16.5V429h-16.5l-30.2-38.8h-0.2V429h-16.5V365.6z"/>
		<path fill="#E30613" d="M547.1,418l-4.3,11h-17.5l24.3-63.4h18l23.9,63.4H574l-4.1-11H547.1z M558.7,385.2h-0.2l-6.8,20.2h13.7
			L558.7,385.2z"/>
	</g>
	<g>
		<path fill="#FFFFFF" d="M152.5,468.8l-3.8,9h-3.9l14.6-33.2l14.3,33.2h-3.9l-3.7-9H152.5z M159.4,452.9l-5.4,12.7h10.7
			L159.4,452.9z"/>
		<path fill="#FFFFFF" d="M214.7,452.3c-1.3-2.2-2.8-3.5-5.5-3.5c-2.9,0-5.3,2-5.3,4.9c0,2.8,2.9,4,5,5l2.1,1
			c4.1,1.8,7.6,3.9,7.6,8.9c0,5.5-4.4,9.8-9.9,9.8c-5.1,0-8.9-3.3-9.8-8.2l3.5-1c0.4,3.3,3,5.9,6.4,5.9s6.6-2.6,6.6-6.1
			c0-3.7-2.9-5-5.8-6.4l-1.9-0.8c-3.7-1.7-6.9-3.6-6.9-8.2c0-4.9,4.1-8,8.9-8c3.5,0,6.6,1.8,8.2,4.9L214.7,452.3z"/>
		<path fill="#FFFFFF" d="M261.3,452.3c-1.3-2.2-2.8-3.5-5.5-3.5c-2.9,0-5.3,2-5.3,4.9c0,2.8,2.9,4,5,5l2.1,1
			c4.1,1.8,7.6,3.9,7.6,8.9c0,5.5-4.4,9.8-9.9,9.8c-5.1,0-8.9-3.3-9.8-8.2l3.5-1c0.4,3.3,3,5.9,6.4,5.9c3.4,0,6.6-2.6,6.6-6.1
			c0-3.7-2.9-5-5.8-6.4l-1.9-0.8c-3.7-1.7-6.9-3.6-6.9-8.2c0-4.9,4.1-8,8.9-8c3.5,0,6.6,1.8,8.2,4.9L261.3,452.3z"/>
		<path fill="#FFFFFF" d="M325.1,462c0,9.1-7.5,16.4-16.5,16.4c-9,0-16.5-7.2-16.5-16.4c0-9.1,7.5-16.4,16.5-16.4
			C317.5,445.6,325.1,452.9,325.1,462z M295.5,462c0,7.2,5.8,13.1,13,13.1s13-5.9,13-13.1s-5.7-13.1-13-13.1
			C301.2,448.9,295.5,454.8,295.5,462z"/>
		<path fill="#FFFFFF" d="M377.1,453c-2.5-2.6-6-4.2-9.6-4.2c-7.1,0-12.8,6.1-12.8,13.1c0,7,5.7,13.1,12.9,13.1
			c3.6,0,7.1-1.7,9.6-4.2v4.3c-2.8,2-6.1,3.1-9.4,3.1c-9,0-16.5-7.3-16.5-16.3c0-9.1,7.4-16.5,16.5-16.5c3.5,0,6.7,1.1,9.4,3.1v4.6
			H377.1z"/>
		<path fill="#FFFFFF" d="M409.8,477.8h-3.5v-31.6h3.5V477.8z"/>
		<path fill="#FFFFFF" d="M444.1,468.8l-3.8,9h-3.9l14.6-33.2l14.3,33.2h-3.9l-3.7-9H444.1z M451,452.9l-5.4,12.7h10.7L451,452.9z"
			/>
		<path fill="#FFFFFF" d="M496.9,477.8h-3.5v-28.4h-7.6v-3.3h18.9v3.3h-7.7v28.4H496.9z"/>
		<path fill="#FFFFFF" d="M531.3,446.1h16.4v3.3h-12.9v9.4h12.5v3.3h-12.5v12.5h12.9v3.3h-16.4V446.1z"/>
		<path fill="#FFFFFF" d="M591.4,452.3c-1.3-2.2-2.8-3.5-5.5-3.5c-2.9,0-5.3,2-5.3,4.9c0,2.8,2.9,4,5,5l2.1,1
			c4.1,1.8,7.6,3.9,7.6,8.9c0,5.5-4.4,9.8-9.9,9.8c-5.1,0-8.9-3.3-9.8-8.2l3.5-1c0.4,3.3,3,5.9,6.4,5.9c3.4,0,6.6-2.6,6.6-6.1
			c0-3.7-2.9-5-5.8-6.4l-1.9-0.8c-3.7-1.7-6.9-3.6-6.9-8.2c0-4.9,4.1-8,8.9-8c3.5,0,6.6,1.8,8.2,4.9L591.4,452.3z"/>
	</g>
</g>
</svg>
